<?xml version="1.0"?>
<svg xmlns="http://www.w3.org/2000/svg" xmlns:xlink="http://www.w3.org/1999/xlink" version="1.1" viewBox="0 0 192 192" width="480px" height="480px"><g fill="none" fill-rule="nonzero" stroke="none" stroke-width="1" stroke-linecap="butt" stroke-linejoin="miter" stroke-miterlimit="10" stroke-dasharray="" stroke-dashoffset="0" font-family="none" font-weight="none" font-size="none" text-anchor="none" style="mix-blend-mode: normal"><path d="M0,192v-192h192v192z" fill="none"/><g><g id="surface1"><path d="M152.28125,86.51562c0,0 13.15625,0.65625 13.15625,-7.07812c0,-10.10938 -17.51562,-19.21875 -17.51562,-19.21875c0,0 2.75,-5.82813 4.45312,-9.07813c1.71875,-3.25 6.53125,-15.95312 6.96875,-18.85937c0.54687,-3.64063 -0.28125,-4.78125 -0.28125,-4.78125c-1.1875,7.8125 -13.90625,30.29688 -14.92188,31.0625c-12.40625,-5.8125 -29.4375,-7.4375 -29.4375,-7.4375c0,0 -16.6875,-35.125 -32.375,-35.125c-15.5625,0 -15.48437,30.07812 -15.48437,30.07812c0,0 -4.39063,-8.53125 -9.90625,-8.53125c-8.0625,0 -10.71875,12.20312 -10.71875,25.4375c-15.92188,0 -29.32813,3.5625 -30.51563,3.90625c-1.20312,0.34375 -4.96875,3.07813 -3.26562,2.73438c3.48438,-1.10938 19.85938,-3.64062 34.1875,-2.40625c0.78125,12.57812 8.125,28.95312 8.125,28.95312c0,0 -15.73438,22.8125 -15.73438,39.09375c0,4.29688 1.59375,12.73438 12.90625,12.73438c9.46875,0 20.35938,-6.29688 22.35938,-7.45312c-1.75,2.5 -3.04688,7.23438 -3.04688,9.42188c0,1.01562 0.40625,3.10937 2.07812,4.71875c2.67188,-2.65625 5.29688,-5.29688 8.54688,-8.53125c-3.5,-0.64063 -3.96875,-3.23438 -3.96875,-3.90625c0,-2.34375 1.82813,-5.125 1.82813,-5.125c0,0 8.51562,-5.75 9.04687,-6.35938l6.28125,11.71875c0,0 -6.4375,3.8125 -11.48438,3.8125c-0.64062,0 -1.20312,-0.04688 -1.70312,-0.14062c-3.25,3.23437 -5.875,5.875 -8.54688,8.53125c1.25,1.20312 3.1875,2.125 6.28125,2.125c9.375,0 19.85937,-7.1875 19.85937,-7.1875c0,0 9.89063,16.4375 18.32813,23.96875c2.28125,2.03125 4.46875,2.40625 4.46875,2.40625c0,0 -8.40625,-8.09375 -19.46875,-28.92188c10.28125,-6.35937 20.98437,-21.34375 20.98437,-21.34375c0,0 1.26563,0.03125 11.03125,0.03125c15.29688,0 37.03125,-3.21875 37.03125,-15.375c0,-12.54687 -19.54687,-23.875 -19.54687,-23.875zM154,78.95312c0,4.4375 -4.23438,4.39063 -4.23438,4.39063l-3.20312,0.20312l-9.78125,-4.70312c0,0 5.71875,-8.8125 7.0625,-11.28125c1.01562,0.59375 10.15625,6.3125 10.15625,11.39062zM61.48438,47.45312c2.28125,0 4.53125,2.78125 5.45312,5.14063c0,1.54687 0.8125,10.64062 0.8125,10.64062l-13.20312,-0.48438c0,-11.92188 4.65625,-15.29688 6.9375,-15.29688zM60.125,130.15625c-7.21875,0 -8.70312,-4.01563 -8.70312,-7.64063c0,-8.20312 6.53125,-19.65625 6.53125,-19.65625c0,0 7.32813,15.42188 20.125,21.92188c-6.34375,3.73437 -11.59375,5.375 -17.95312,5.375zM99.32812,139.90625c-3.07812,-5.39063 -5.34375,-11.01563 -5.34375,-11.01563c0,0 12.64062,0.82813 19.4375,-6.20312c-4.23438,1.90625 -10.98438,4.3125 -18.84375,3.57812l34.10938,-35.78125c-0.70312,-0.84375 -4.40625,-3.4375 -5.3125,-3.875c-4.89062,5.89062 -23.90625,26.23438 -41.51562,36.29688c-22.29688,-12.15625 -26.98438,-47.95313 -27.45312,-55.375l12.17187,1.17187c0,0 -4.57812,8.10938 -4.57812,14.07813c0,5.96875 0.71875,6.29687 0.71875,6.29687c0,0 -0.15625,-10.42187 6.26562,-18.45312c4.90625,26.0625 10,39.42188 13.98438,47.39062c2.03125,-0.84375 5.8125,-2.51562 5.8125,-2.51562c0,0 -11.25,-32.4375 -10.625,-54.39062c3.54687,-1.89062 8.29687,-3.8125 13.70312,-4.8125c-0.125,-1.40625 -0.42188,-2.8125 -1.03125,-4.20312c-4.09375,0.95312 -8.48437,2.46875 -12.59375,4.89062c0.35938,-12.23438 4.46875,-23.29688 11.75,-23.29688c7.1875,0 17.45312,16.96875 17.45312,16.96875c0,0 -7.57812,-0.67188 -16.60938,1.42187c0.60938,1.40625 0.90625,2.8125 1.03125,4.21875c2.375,-0.4375 4.875,-0.71875 7.46875,-0.71875c22.4375,0 40.46875,9.65625 40.46875,9.65625l-7.04688,9.85938c0,0 -6.29688,-11.39063 -15.17188,-13.42188c4.6875,3.48438 9.92188,8.10938 12.65625,14.75c-18.59375,-7.28125 -41.03125,-11.10938 -48.23438,-11.95312c-0.625,2.65625 -0.54688,6.45312 -0.54688,6.45312c0,0 30.09375,5.54688 51.98438,18.07812c-0.14062,27.42188 -29.98438,48.45312 -34.10938,50.90625zM127.82812,119.42188c0,0 9.35938,-12.26562 9.20313,-28.5c0,0 15.07812,9.34375 15.07812,18.46875c0.01562,10.1875 -24.28125,10.03125 -24.28125,10.03125z" fill="#3498db"/><path d="M71.23438,149.96875c0,-2.17188 1.29688,-6.92188 3.03125,-9.42188c2.95313,-1.48438 5.45313,-3.42188 5.45313,-3.42188c0,0 -1.84375,2.78125 -1.84375,5.125c0,0.67188 0.46875,3.26562 3.96875,3.90625c0.5,0.09375 1.0625,0.14062 1.70312,0.14062c5.0625,0 11.48438,-3.8125 11.48438,-3.8125c-20.65625,18.51562 -23.79688,7.75 -23.79688,7.48438zM74.57812,117.59375l-0.25,0.10937l-0.29687,0.1875c-1.17188,0.6875 -2.26563,1.25 -3.34375,1.75c2.21875,1.96875 4.67188,3.76563 7.39062,5.14063c1.17188,-0.5625 2.95313,-1.4375 3.78125,-1.85938c-2.67188,-1.46875 -5.09375,-3.28125 -7.28125,-5.32812zM53.60938,128.17188c-1.67188,-1.5 -2.1875,-3.625 -2.1875,-5.65625c0,-8.20312 6.53125,-19.65625 6.53125,-19.65625l-3.20312,-6.67188c0,0 -16.1875,24.34375 -1.1875,32.09375c0.03125,-0.09375 0.01562,-0.01563 0.04688,-0.10938zM151.85938,111.14062c-2.625,8.42188 -24.03125,8.28125 -24.03125,8.28125l-4.0625,6.3125c0,0 1.20313,0.03125 9.48438,0.04688c0,0 16.96875,-1.39063 18.60938,-14.64063zM132.92188,97.78125c0,0 1.375,0.89062 3.20312,2.29687c0.57812,-2.85937 0.9375,-5.92187 0.90625,-9.15625c-0.79688,-0.48438 -2.82813,-1.5625 -3.57813,-1.90625c-0.01562,2.90625 -0.42187,5.71875 -1.04687,8.46875c0.20312,0.125 0.39062,0.23438 0.51562,0.29688zM154,78.95312c0,4.4375 -4.23438,4.39063 -4.23438,4.39063l-3.20312,0.20312l5.71875,2.95312c18.46875,-0.75 4.26562,-15.125 -8.4375,-18.9375c1.01562,0.59375 10.15625,6.3125 10.15625,11.39062zM87.73438,34.09375c0.71875,-0.23438 1.45312,-0.39063 2.25,-0.39063c7.1875,0 17.45312,16.96875 17.45312,16.96875l7.26562,0.45312c0,0 -1.67187,-3.5 -4.4375,-8.28125c-3.79687,-6.15625 -15.5,-12.28125 -22.53125,-8.75zM60.75,40.75c-7.125,-0.75 -6.90625,19.75 -6.20312,22c0,-11.90625 4.65625,-15.29688 6.9375,-15.29688c2.28125,0 4.53125,2.78125 5.45312,5.14063c-0.10938,-3.51563 -0.09375,-6.51563 -0.09375,-6.51563c0,0 -2.84375,-4.70312 -6.09375,-5.32812zM86.23438,57.3125c0.03125,-1.39062 0.17188,-2.70312 0.32812,-4c-2.79688,0.90625 -5.625,2.07812 -8.32812,3.67188c-0.07812,1.67188 0.01562,2.4375 -0.07812,4.14062c2.23437,-1.20312 5,-2.375 8.0625,-3.35938c0,-0.14062 0,-0.28125 0.01562,-0.45312zM99.25,139.90625c-3.07812,-5.39063 -5.35938,-11.01563 -5.35938,-11.01563c0,0 12.65625,0.82813 19.45313,-6.20312c-4.25,1.90625 -10.98438,4.3125 -18.85938,3.57812c-1.65625,1.73438 -3.65625,3.0625 -5.8125,4.5l6.28125,11.71875c0,0 4.78125,-2.875 4.29688,-2.57812zM102.6875,147.07812c0.96875,-0.59375 -3.32812,2.54688 -3.32812,2.54688c0,0 9.875,16.4375 18.32812,23.96875c2.28125,2.03125 4.45312,2.40625 4.45312,2.40625c0,0 -8.39062,-8.09375 -19.45312,-28.92188zM159.0625,27.48438c-1.1875,7.8125 -13.90625,30.3125 -14.90625,31.07812c-1.25,-0.57812 3.78125,1.64062 3.78125,1.64062c0,0 2.73438,-5.8125 4.45312,-9.07812c1.70313,-3.25 6.53125,-15.9375 6.95313,-18.84375c0.54687,-3.64063 -0.28125,-4.79688 -0.28125,-4.79688zM139.8125,65.25l-7.0625,9.85938c0,0 -6.29688,-11.39062 -15.17188,-13.42188c3.57813,2.67188 7.46875,6 10.32813,10.375c0,-0.01562 0,-0.04688 0,-0.0625c0,0.01562 0,0.04688 0,0.0625c0.89062,1.35938 1.6875,2.79688 2.32812,4.375c3.67188,1.39062 6.85938,2.53125 6.54688,2.40625c0,0 5.71875,-8.8125 7.0625,-11.28125c0.375,0.21875 -4.03125,-2.3125 -4.03125,-2.3125zM67.75,63.25l-13.20312,-0.5c-0.21875,1.32812 -0.14062,3.42188 -0.14062,4.78125l12.17187,1.17187c0,0 -4.5625,8.10938 -4.5625,14.09375c0,5.96875 0.70313,6.28125 0.70313,6.28125c0,0 -0.125,-9.25 5.23437,-17.04687c-0.01562,-0.01563 -0.03125,-0.01563 -0.03125,-0.03125c0.01562,0.01562 0.03125,0.03125 0.03125,0.03125c0.32813,-0.46875 0.67188,-0.9375 1.04688,-1.40625c-0.84375,-4.70312 -1.25,-7.375 -1.25,-7.375zM46.21875,62.98438c-15.92188,0 -29.32813,3.5625 -30.53125,3.90625c-1.20312,0.34375 -4.96875,3.07813 -3.25,2.73438c3.48438,-1.10938 19.85938,-3.64062 34.1875,-2.39062c-0.29688,-2.65625 -0.40625,-4.25 -0.40625,-4.25z" fill="#01579b"/></g></g></g></svg>
